<?xml version="1.0" encoding="UTF-8"?>
<svg width="13px" height="9px" viewBox="0 0 13 9" version="1.1" xmlns="http://www.w3.org/2000/svg" xmlns:xlink="http://www.w3.org/1999/xlink">
    <!-- Generator: Sketch 50.2 (55047) - http://www.bohemiancoding.com/sketch -->
    <title>icon/saldo</title>
    <desc>Created with Sketch.</desc>
    <defs></defs>
    <g id="Symbols" stroke="none" stroke-width="1" fill="none" fill-rule="evenodd">
        <g id="icon/saldo" transform="translate(-2.000000, -3.000000)">
            <g>
                <rect id="Rectangle-path" x="0" y="0" width="16" height="16"></rect>
                <g id="Group-11" transform="translate(2.000000, 3.000000)" fill="#FFFFFF">
                    <path d="M2.56213822,0.0312673701 C2.58998913,0.028582945 2.61192179,0.0274200944 2.65278399,0.0259421988 C2.69270749,0.024548932 2.70264633,0.0241144473 2.71243219,0.0234208817 C2.90012901,0.00800292911 3.06615341,0 3.22884848,0 C4.15569598,0 4.8752989,0.120662699 6.41983997,0.470570204 C7.78891851,0.78006493 8.37495236,0.880333333 9.07566667,0.880333333 C9.68726903,0.880333333 10.22689,0.770085359 10.7313541,0.543318077 C10.8832016,0.475326648 11.0502518,0.441030303 11.2209394,0.441030303 C11.4116753,0.441030303 11.6000027,0.484686233 11.7644164,0.57030257 C12.0952369,0.740480239 12.3050909,1.05662401 12.3050909,1.40715152 L12.3050909,1.64724242 L12.3050904,7.37720819 C12.305867,7.78414126 12.0849732,8.15719669 11.7291943,8.34955188 C11.1449462,8.66536167 10.5295093,8.86453323 9.8693587,8.95264902 C9.84026202,8.96512273 9.80720349,8.97350161 9.7701141,8.97671408 C9.72817695,8.98034643 9.69636505,8.98169388 9.62706136,8.98363211 C9.57622385,8.98511001 9.56024437,8.98571384 9.5432773,8.98673587 C9.41247109,8.99674974 9.28385457,9.00250643 9.16504217,9.00352597 C9.13859492,9.00569493 9.13859492,9.00569493 9.1050303,9.00657576 C9.05167766,9.00657576 9.03179181,9.00587978 8.99659711,9.00420344 C8.96529283,9.0028262 8.96529283,9.0028262 8.94968341,9.00249001 C8.06863693,8.98519521 7.36866698,8.86849969 5.91623676,8.54960977 C4.54446437,8.24781985 3.96009075,8.15042424 3.25936364,8.15042424 C2.64534212,8.15042424 2.10390183,8.2579443 1.59990505,8.47930792 C1.44832554,8.54459216 1.2825315,8.57763636 1.11351515,8.57763636 C0.92390011,8.57763636 0.736378763,8.5350977 0.575328331,8.45306729 C0.242060807,8.28723466 0.0299393939,7.97708744 0.0299393939,7.63109091 C0.0101303075,7.54704234 0,7.46234944 0,7.37718182 L0,1.62939394 C0,1.22233479 0.220011327,0.849178326 0.575643866,0.655698032 C1.1774829,0.331370532 1.80870725,0.130514064 2.48760703,0.0468413472 C2.51030711,0.0391993378 2.53514103,0.0338695092 2.56213822,0.0312673701 Z M5.28630764,4.17914269 L5.40030764,4.07377905 C5.65162582,3.81468814 5.77858037,3.49686996 5.77858037,3.12809723 C5.77858037,2.75932451 5.64903491,2.43977905 5.39253491,2.17982451 C5.13517128,1.91986996 4.82253491,1.7877336 4.46326218,1.7877336 L3.16521673,1.79032451 C3.07712582,1.79032451 3.00458037,1.82227905 2.94326218,1.88618814 C2.88108037,1.94836996 2.84998946,2.0252336 2.84998946,2.11418814 L2.84998946,6.08950633 C2.84998946,6.17846087 2.88021673,6.2527336 2.94412582,6.32009723 C2.99853491,6.37536996 3.07885309,6.40646087 3.16435309,6.40646087 C3.24985309,6.40646087 3.33189855,6.37364269 3.38717128,6.31750633 C3.45021673,6.25446087 3.47958037,6.17932451 3.47958037,6.08950633 L3.47958037,4.47364269 L4.46326218,4.47364269 C4.53321673,4.47364269 4.59626218,4.46932451 4.65067128,4.46241542 L4.70767128,4.45464269 L5.72848946,6.25618814 C5.77167128,6.3287336 5.83558037,6.37709723 5.92971673,6.40300633 C5.94785309,6.40905178 5.97548946,6.41682451 6.007444,6.41682451 C6.06530764,6.41682451 6.111944,6.39436996 6.15253491,6.37018814 C6.23112582,6.32700633 6.28121673,6.25964269 6.30280764,6.17500633 C6.311444,6.13959723 6.31576218,6.11196087 6.31576218,6.08346087 C6.31576218,6.02991542 6.30108037,5.97550633 6.273444,5.92886996 L5.28630764,4.17914269 Z M9.59461023,3.67244091 C9.28888295,3.36066818 8.91492841,3.20175909 8.48311023,3.20175909 C8.05042841,3.20175909 7.67561023,3.35980455 7.37074659,3.67244091 C7.0693375,3.98075909 6.91561023,4.35816818 6.91042841,4.79516818 L6.91042841,7.38435 C6.91042841,7.47330455 6.93979205,7.54585 7.00542841,7.61494091 C7.06329205,7.67453182 7.14188295,7.70735 7.22479205,7.70735 C7.30942841,7.70735 7.38801932,7.67366818 7.44847386,7.61321364 C7.50979205,7.54930455 7.54088295,7.47244091 7.54088295,7.38435 L7.54088295,6.10616818 L7.6678375,6.18562273 C7.90965568,6.33848636 8.18342841,6.41535 8.48311023,6.41535 C8.91492841,6.41535 9.28801932,6.25730455 9.59201932,5.94725909 C9.89947386,5.63462273 10.0540648,5.25116818 10.0540648,4.80985 C10.0540648,4.36766818 9.9003375,3.98507727 9.59461023,3.67244091 Z" id="Combined-Shape" fill-rule="nonzero"></path>
                    <g id="Group-10" transform="translate(3.454545, 1.727273)">
                        <path d="M0.0250349121,0.696960871 L1.00871673,0.696960871 C1.200444,0.696960871 1.361944,0.765188144 1.50012582,0.905097235 C1.63485309,1.04241542 1.70308037,1.20996087 1.70308037,1.40082451 C1.70308037,1.59514269 1.63485309,1.76355178 1.50185309,1.9017336 C1.36367128,2.04077905 1.20130764,2.10900633 1.00871673,2.10900633 L0.0250349121,2.10900633 L0.0250349121,0.696960871 Z" id="Fill-9"></path>
                        <path d="M5.02856477,4.04466818 C4.75997386,4.04466818 4.54751932,3.95485 4.35751932,3.76139545 C4.20120114,3.60248636 4.11051932,3.41507727 4.08806477,3.21471364 L4.08461023,3.03162273 C4.0958375,2.78030455 4.18392841,2.57216818 4.35751932,2.39685 C4.5423375,2.20857727 4.76170114,2.11703182 5.02856477,2.11703182 C5.29370114,2.11703182 5.51306477,2.20857727 5.69701932,2.39857727 C5.88529205,2.59030455 5.97424659,2.80621364 5.97424659,3.07825909 C5.97424659,3.34944091 5.88615568,3.56707727 5.69788295,3.76139545 C5.51220114,3.95225909 5.2928375,4.04466818 5.02856477,4.04466818" id="Fill-11"></path>
                    </g>
                </g>
            </g>
        </g>
    </g>
</svg>