<svg width="24" height="24" xmlns="http://www.w3.org/2000/svg" xmlns:xlink="http://www.w3.org/1999/xlink"><defs><path d="M11.08 6.027c-.257.29-.627.423-1.08.423-.845 0-1.45-.624-1.45-1.462 0-.859.594-1.439 1.45-1.439.825 0 1.45.612 1.45 1.44 0 .407-.12.76-.37 1.038zM11.25 16a2.5 2.5 0 0 1-2.5-2.5V8h2.5v8zM10 0C4.477 0 0 4.477 0 10c0 5.522 4.477 10 10 10s10-4.478 10-10c0-5.523-4.477-10-10-10z" id="a"/></defs><g fill="none" fill-rule="evenodd"><path d="M0 0h24v24H0z"/><g transform="translate(2 2)"><mask id="b" fill="#fff"><use xlink:href="#a"/></mask><use fill="#9FA6B0" xlink:href="#a"/><g mask="url(#b)" fill="#9FA6B0"><path d="M-2-2h24v24H-2z"/></g></g></g></svg>