<svg width="18px" height="6px" viewBox="0 0 18 6" version="1.1" xmlns="http://www.w3.org/2000/svg" xmlns:xlink="http://www.w3.org/1999/xlink">
    <g id="---&gt;&gt;-[NEW]-More-Menus" stroke="none" stroke-width="1" fill="none" fill-rule="evenodd">
        <g id="Components/More-Menus/Horizontal/Icon" transform="translate(-3.000000, -9.000000)" fill="#DADADA">
            <g id="Group-9">
                <path d="M16,12 C16,10.619 17.119,9.5 18.5,9.5 C19.881,9.5 21,10.619 21,12 C21,13.381 19.881,14.5 18.5,14.5 C17.119,14.5 16,13.381 16,12 Z" id="Fill-1"></path>
                <path d="M9.5,12 C9.5,10.619 10.619,9.5 12,9.5 C13.381,9.5 14.5,10.619 14.5,12 C14.5,13.381 13.381,14.5 12,14.5 C10.619,14.5 9.5,13.381 9.5,12 Z" id="Fill-3"></path>
                <path d="M3,12 C3,10.619 4.119,9.5 5.5,9.5 C6.881,9.5 8,10.619 8,12 C8,13.381 6.881,14.5 5.5,14.5 C4.119,14.5 3,13.381 3,12 Z" id="Fill-5"></path>
            </g>
        </g>
    </g>
</svg>