<?xml version="1.0" encoding="UTF-8"?>
<svg width="24px" height="24px" viewBox="0 0 24 24" version="1.1" xmlns="http://www.w3.org/2000/svg" xmlns:xlink="http://www.w3.org/1999/xlink">
    <!-- Generator: Sketch 52.4 (67378) - http://www.bohemiancoding.com/sketch -->
    <title>Group 3 Copy 2</title>
    <desc>Created with Sketch.</desc>
    <g id="---&gt;&gt;-[NEW]-Share-Button" stroke="none" stroke-width="1" fill="none" fill-rule="evenodd">
        <g id="Components/Share/Collapse/Left" transform="translate(-78.000000, -6.000000)">
            <g id="Group-11-Copy">
                <g id="Group-3-Copy-2" transform="translate(78.000000, 6.000000)">
                    <path d="M24,16 C24,20.4 20.4,24 16,24 L8,24 C3.6,24 0,20.4 0,16 L0,8 C0,3.6 3.6,0 8,0 L16,0 C20.4,0 24,3.6 24,8 L24,16 Z" id="Fill-5" fill="#3B5998"></path>
                    <path d="M10.3105,8.0947 L10.3105,9.8497 L9.0245,9.8497 L9.0245,11.9957 L10.3105,11.9957 L10.3105,18.3747 L12.9525,18.3747 L12.9525,11.9957 L14.7255,11.9957 C14.7255,11.9957 14.8915,10.9667 14.9725,9.8417 L12.9625,9.8417 L12.9625,8.3737 C12.9625,8.1547 13.2505,7.8607 13.5365,7.8607 L14.9755,7.8607 L14.9755,5.6247 L13.0175,5.6247 C10.2465,5.6247 10.3105,7.7737 10.3105,8.0947" id="Fill-19" fill="#FFFFFF"></path>
                </g>
            </g>
        </g>
    </g>
</svg>