<?xml version="1.0" encoding="UTF-8"?>
<svg width="24px" height="24px" viewBox="0 0 24 24" version="1.1" xmlns="http://www.w3.org/2000/svg" xmlns:xlink="http://www.w3.org/1999/xlink">
    <!-- Generator: Sketch 52.4 (67378) - http://www.bohemiancoding.com/sketch -->
    <title>Group 6 Copy 2</title>
    <desc>Created with Sketch.</desc>
    <g id="---&gt;&gt;-[NEW]-Share-Button" stroke="none" stroke-width="1" fill="none" fill-rule="evenodd">
        <g id="Components/Share/Collapse/Left" transform="translate(-142.000000, -6.000000)">
            <g id="Group-11-Copy">
                <g id="Group-6-Copy-2" transform="translate(142.000000, 6.000000)">
                    <path d="M24,16 C24,20.4 20.4,24 16,24 L8,24 C3.6,24 0,20.4 0,16 L0,8 C0,3.6 3.6,0 8,0 L16,0 C20.4,0 24,3.6 24,8 L24,16 Z" id="Fill-9" fill="#D93174"></path>
                    <path d="M15.0312,4.5 L8.9692,4.5 C6.5052,4.5 4.5002,6.505 4.5002,8.969 L4.5002,15.031 C4.5002,17.495 6.5052,19.5 8.9692,19.5 L15.0312,19.5 C17.4952,19.5 19.5002,17.495 19.5002,15.031 L19.5002,8.969 C19.5002,6.505 17.4952,4.5 15.0312,4.5 Z M17.9912,15.031 C17.9912,16.666 16.6662,17.991 15.0312,17.991 L8.9692,17.991 C7.3342,17.991 6.0092,16.666 6.0092,15.031 L6.0092,8.969 C6.0092,7.334 7.3342,6.009 8.9692,6.009 L15.0312,6.009 C16.6662,6.009 17.9912,7.334 17.9912,8.969 L17.9912,15.031 Z" id="Fill-13" fill="#FFFFFF"></path>
                    <path d="M12,8.0293 C9.811,8.0293 8.029,9.8103 8.029,12.0003 C8.029,14.1893 9.811,15.9703 12,15.9703 C14.189,15.9703 15.971,14.1893 15.971,12.0003 C15.971,9.8103 14.189,8.0293 12,8.0293 M12,14.4253 C10.66,14.4253 9.574,13.3403 9.574,12.0003 C9.574,10.6603 10.66,9.5743 12,9.5743 C13.34,9.5743 14.427,10.6603 14.427,12.0003 C14.427,13.3403 13.34,14.4253 12,14.4253" id="Fill-15" fill="#FFFFFF"></path>
                    <path d="M15.9707,8.9121 C16.4577,8.9121 16.8537,8.5161 16.8537,8.0291 C16.8537,7.5421 16.4577,7.1471 15.9707,7.1471 C15.4837,7.1471 15.0877,7.5421 15.0877,8.0291 C15.0877,8.5161 15.4837,8.9121 15.9707,8.9121" id="Fill-17" fill="#FFFFFF"></path>
                </g>
            </g>
        </g>
    </g>
</svg>