<?xml version="1.0" encoding="UTF-8"?>
<svg width="24px" height="24px" viewBox="0 0 24 24" version="1.1" xmlns="http://www.w3.org/2000/svg" xmlns:xlink="http://www.w3.org/1999/xlink">
    <!-- Generator: Sketch 52.4 (67378) - http://www.bohemiancoding.com/sketch -->
    <title>Group Copy 2</title>
    <desc>Created with Sketch.</desc>
    <g id="---&gt;&gt;-[NEW]-Share-Button" stroke="none" stroke-width="1" fill="none" fill-rule="evenodd">
        <g id="Components/Share/Collapse/Left" transform="translate(-14.000000, -6.000000)">
            <g id="Group-11-Copy">
                <g id="Group-Copy-2" transform="translate(14.000000, 6.000000)">
                    <path d="M24,16 C24,20.4 20.4,24 16,24 L8,24 C3.6,24 0,20.4 0,16 L0,8 C0,3.6 3.6,0 8,0 L16,0 C20.4,0 24,3.6 24,8 L24,16 Z" id="Fill-1" fill="#00B900"></path>
                    <path d="M19.5,10.9404 C19.5,7.5844 16.136,4.8534 12,4.8534 C7.865,4.8534 4.5,7.5844 4.5,10.9404 C4.5,13.9494 7.168,16.4684 10.772,16.9454 C11.017,16.9984 11.349,17.1064 11.433,17.3144 C11.509,17.5034 11.482,17.8014 11.457,17.9934 C11.457,17.9934 11.369,18.5224 11.351,18.6344 C11.317,18.8244 11.199,19.3774 12,19.0394 C12.801,18.7024 16.319,16.4964 17.893,14.6844 C18.979,13.4934 19.5,12.2834 19.5,10.9404" id="Fill-27" fill="#FFFFFF"></path>
                    <path d="M10.4766,9.3184 L9.9506,9.3184 C9.8696,9.3184 9.8036,9.3834 9.8036,9.4644 L9.8036,12.7324 C9.8036,12.8124 9.8696,12.8784 9.9506,12.8784 L10.4766,12.8784 C10.5566,12.8784 10.6226,12.8124 10.6226,12.7324 L10.6226,9.4644 C10.6226,9.3834 10.5566,9.3184 10.4766,9.3184" id="Fill-29" fill="#00B900"></path>
                    <path d="M14.0967,9.3184 L13.5717,9.3184 C13.4907,9.3184 13.4247,9.3834 13.4247,9.4644 L13.4247,11.4064 L11.9277,9.3834 C11.9237,9.3784 11.9197,9.3734 11.9157,9.3684 C11.9157,9.3684 11.9147,9.3684 11.9147,9.3674 L11.9067,9.3584 C11.9057,9.3574 11.9047,9.3564 11.9037,9.3564 C11.9017,9.3534 11.8987,9.3514 11.8957,9.3494 C11.8947,9.3484 11.8937,9.3474 11.8917,9.3464 C11.8897,9.3444 11.8867,9.3424 11.8847,9.3414 C11.8827,9.3404 11.8817,9.3394 11.8797,9.3394 C11.8767,9.3374 11.8747,9.3364 11.8717,9.3344 C11.8707,9.3344 11.8687,9.3334 11.8677,9.3324 C11.8657,9.3314 11.8627,9.3304 11.8597,9.3294 C11.8577,9.3284 11.8567,9.3274 11.8547,9.3274 L11.8457,9.3244 C11.8437,9.3234 11.8427,9.3234 11.8407,9.3234 C11.8377,9.3224 11.8347,9.3214 11.8317,9.3214 C11.8297,9.3204 11.8277,9.3204 11.8257,9.3204 C11.8237,9.3194 11.8217,9.3194 11.8187,9.3194 C11.8167,9.3194 11.8137,9.3184 11.8107,9.3184 L11.8057,9.3184 L11.2797,9.3184 C11.1997,9.3184 11.1337,9.3834 11.1337,9.4644 L11.1337,12.7324 C11.1337,12.8124 11.1997,12.8784 11.2797,12.8784 L11.8057,12.8784 C11.8867,12.8784 11.9517,12.8124 11.9517,12.7324 L11.9517,10.7914 L13.4507,12.8164 C13.4617,12.8314 13.4747,12.8424 13.4887,12.8524 C13.4897,12.8524 13.4897,12.8534 13.4907,12.8534 L13.4987,12.8594 C13.4997,12.8604 13.5017,12.8604 13.5027,12.8614 C13.5057,12.8624 13.5077,12.8634 13.5097,12.8644 C13.5127,12.8654 13.5147,12.8674 13.5177,12.8684 C13.5187,12.8684 13.5207,12.8694 13.5217,12.8694 C13.5257,12.8704 13.5287,12.8724 13.5317,12.8724 C13.5327,12.8734 13.5337,12.8734 13.5347,12.8734 C13.5457,12.8764 13.5577,12.8784 13.5717,12.8784 L14.0967,12.8784 C14.1777,12.8784 14.2427,12.8124 14.2427,12.7324 L14.2427,9.4644 C14.2427,9.3834 14.1777,9.3184 14.0967,9.3184" id="Fill-31" fill="#00B900"></path>
                    <path d="M9.208,12.0596 L7.778,12.0596 L7.778,9.4646 C7.778,9.3836 7.713,9.3186 7.633,9.3186 L7.106,9.3186 C7.025,9.3186 6.96,9.3836 6.96,9.4646 L6.96,12.7326 C6.96,12.7716 6.976,12.8066 7.001,12.8326 C7.002,12.8336 7.002,12.8346 7.003,12.8346 L7.005,12.8366 C7.031,12.8626 7.067,12.8776 7.106,12.8776 L9.208,12.8776 C9.289,12.8776 9.354,12.8126 9.354,12.7326 L9.354,12.2056 C9.354,12.1246 9.289,12.0596 9.208,12.0596" id="Fill-33" fill="#00B900"></path>
                    <path d="M17.002,10.1367 C17.083,10.1367 17.148,10.0717 17.148,9.9907 L17.148,9.4647 C17.148,9.3837 17.083,9.3187 17.002,9.3187 L14.9,9.3187 C14.861,9.3187 14.825,9.3337 14.799,9.3597 C14.799,9.3607 14.798,9.3607 14.798,9.3617 C14.797,9.3627 14.796,9.3637 14.795,9.3637 C14.771,9.3897 14.755,9.4257 14.755,9.4647 L14.755,12.7327 C14.755,12.7717 14.771,12.8067 14.796,12.8327 C14.796,12.8337 14.797,12.8347 14.798,12.8347 C14.798,12.8357 14.799,12.8367 14.8,12.8367 C14.826,12.8627 14.861,12.8777 14.9,12.8777 L17.002,12.8777 C17.083,12.8777 17.148,12.8127 17.148,12.7327 L17.148,12.2057 C17.148,12.1247 17.083,12.0597 17.002,12.0597 L15.573,12.0597 L15.573,11.5077 L17.002,11.5077 C17.083,11.5077 17.148,11.4427 17.148,11.3617 L17.148,10.8347 C17.148,10.7547 17.083,10.6897 17.002,10.6897 L15.573,10.6897 L15.573,10.1367 L17.002,10.1367 Z" id="Fill-35" fill="#00B900"></path>
                </g>
            </g>
        </g>
    </g>
</svg>