<svg width="25" height="27" xmlns="http://www.w3.org/2000/svg"><g fill="#FFC400" fill-rule="evenodd"><path d="M13.102 26.185c-7.04 0-12.768-5.532-12.768-12.333S6.062 1.52 13.102 1.52c3.229 0 6.309 1.166 8.677 3.284.365.328.71.676 1.035 1.042a1.665 1.665 0 1 1-2.495 2.208 9.62 9.62 0 0 0-.763-.766c-1.756-1.57-4.046-2.435-6.454-2.435-5.202 0-9.435 4.037-9.435 9s4.233 9 9.435 9c3.18 0 6.126-1.515 7.882-4.05a1.667 1.667 0 0 1 2.74 1.899c-2.377 3.434-6.35 5.484-10.622 5.484"/><path d="M21.69 2.133V8.21h-6.076c-.807 0-1.465.636-1.465 1.414 0 .778.658 1.414 1.465 1.414h7.49c.78 0 1.414-.636 1.414-1.414v-7.49c0-.806-.635-1.466-1.413-1.466s-1.415.66-1.415 1.466"/></g></svg>
