<?xml version="1.0" encoding="UTF-8"?>
<svg width="24px" height="24px" viewBox="0 0 24 24" version="1.1" xmlns="http://www.w3.org/2000/svg" xmlns:xlink="http://www.w3.org/1999/xlink">
    <!-- Generator: Sketch 52.4 (67378) - http://www.bohemiancoding.com/sketch -->
    <title>Group 8 Copy 2</title>
    <desc>Created with Sketch.</desc>
    <g id="---&gt;&gt;-[NEW]-Share-Button" stroke="none" stroke-width="1" fill="none" fill-rule="evenodd">
        <g id="Components/Share/Collapse/Left" transform="translate(-174.000000, -6.000000)">
            <g id="Group-11-Copy">
                <g id="Group-8-Copy-2" transform="translate(174.000000, 6.000000)">
                    <path d="M24,16 C24,20.4 20.4,24 16,24 L8,24 C3.6,24 0,20.4 0,16 L0,8 C0,3.6 3.6,0 8,0 L16,0 C20.4,0 24,3.6 24,8 L24,16 Z" id="Fill-11" fill="#FFC107"></path>
                    <path d="M15.582,8.25 L13.459,8.25 C13.069,8.25 12.747,8.572 12.747,8.963 C12.747,9.353 13.069,9.675 13.459,9.675 L15.657,9.675 C16.782,9.675 17.816,10.433 18.026,11.535 C18.311,13.02 17.18,14.325 15.747,14.325 L13.459,14.325 C13.069,14.325 12.747,14.647 12.747,15.037 C12.747,15.428 13.069,15.75 13.459,15.75 L15.747,15.75 C17.936,15.75 19.691,13.867 19.481,11.633 C19.294,9.683 17.539,8.25 15.582,8.25 M9.747,12.75 L14.247,12.75 C14.659,12.75 14.997,12.412 14.997,12 C14.997,11.588 14.659,11.25 14.247,11.25 L9.747,11.25 C9.334,11.25 8.997,11.588 8.997,12 C8.997,12.412 9.334,12.75 9.747,12.75 M5.967,11.535 C6.177,10.433 7.212,9.675 8.337,9.675 L10.534,9.675 C10.925,9.675 11.247,9.353 11.247,8.963 C11.247,8.572 10.925,8.25 10.534,8.25 L8.412,8.25 C6.454,8.25 4.707,9.683 4.519,11.633 C4.302,13.867 6.057,15.75 8.247,15.75 L10.534,15.75 C10.925,15.75 11.247,15.428 11.247,15.037 C11.247,14.647 10.925,14.325 10.534,14.325 L8.247,14.325 C6.814,14.325 5.682,13.02 5.967,11.535" id="Fill-37" fill="#FFFFFF"></path>
                </g>
            </g>
        </g>
    </g>
</svg>