<?xml version="1.0" encoding="UTF-8"?>
<svg width="24px" height="24px" viewBox="0 0 24 24" version="1.1" xmlns="http://www.w3.org/2000/svg" xmlns:xlink="http://www.w3.org/1999/xlink">
    <!-- Generator: Sketch 52.4 (67378) - http://www.bohemiancoding.com/sketch -->
    <title>Group 4 Copy 2</title>
    <desc>Created with Sketch.</desc>
    <g id="---&gt;&gt;-[NEW]-Share-Button" stroke="none" stroke-width="1" fill="none" fill-rule="evenodd">
        <g id="Components/Share/Collapse/Left" transform="translate(-110.000000, -6.000000)">
            <g id="Group-11-Copy">
                <g id="Group-4-Copy-2" transform="translate(110.000000, 6.000000)">
                    <path d="M24,16 C24,20.4 20.4,24 16,24 L8,24 C3.6,24 0,20.4 0,16 L0,8 C0,3.6 3.6,0 8,0 L16,0 C20.4,0 24,3.6 24,8 L24,16 Z" id="Fill-7" fill="#00ACED"></path>
                    <path d="M18.874,8.0303 C18.574,8.1643 18.263,8.2683 17.943,8.3443 C18.296,8.0093 18.561,7.5923 18.71,7.1243 C18.752,6.9913 18.607,6.8763 18.487,6.9473 C18.043,7.2113 17.563,7.4083 17.063,7.5353 C17.035,7.5433 17.005,7.5463 16.975,7.5463 C16.884,7.5463 16.796,7.5123 16.726,7.4513 C16.194,6.9823 15.51,6.7243 14.8,6.7243 C14.493,6.7243 14.183,6.7723 13.878,6.8663 C12.935,7.1593 12.206,7.9373 11.978,8.8983 C11.892,9.2593 11.869,9.6193 11.908,9.9693 C11.913,10.0103 11.895,10.0383 11.883,10.0513 C11.861,10.0753 11.833,10.0883 11.802,10.0883 L11.792,10.0883 C9.726,9.8953 7.863,8.9003 6.547,7.2853 C6.479,7.2033 6.351,7.2133 6.297,7.3043 C6.039,7.7473 5.903,8.2533 5.903,8.7673 C5.903,9.5563 6.22,10.3013 6.77,10.8433 C6.539,10.7883 6.314,10.7013 6.106,10.5863 C6.006,10.5293 5.882,10.6013 5.881,10.7173 C5.866,11.8883 6.553,12.9313 7.58,13.4013 C7.56,13.4023 7.539,13.4023 7.519,13.4023 C7.355,13.4023 7.19,13.3863 7.028,13.3553 C6.915,13.3343 6.819,13.4413 6.854,13.5513 C7.188,14.5923 8.085,15.3613 9.158,15.5353 C8.268,16.1343 7.23,16.4493 6.15,16.4493 L5.814,16.4483 C5.71,16.4483 5.622,16.5163 5.596,16.6173 C5.57,16.7163 5.618,16.8203 5.706,16.8713 C6.923,17.5793 8.311,17.9543 9.721,17.9543 C10.954,17.9543 12.108,17.7093 13.15,17.2263 C14.106,16.7833 14.951,16.1503 15.661,15.3453 C16.322,14.5943 16.839,13.7293 17.197,12.7713 C17.539,11.8583 17.72,10.8843 17.72,9.9543 L17.72,9.9103 C17.72,9.7603 17.787,9.6203 17.905,9.5243 C18.353,9.1613 18.742,8.7343 19.062,8.2543 C19.147,8.1283 19.014,7.9683 18.874,8.0303" id="Fill-25" fill="#FFFFFF"></path>
                </g>
            </g>
        </g>
    </g>
</svg>