<svg width="24" height="24" xmlns="http://www.w3.org/2000/svg"><g fill="none" fill-rule="evenodd"><path d="M12 24c6.627 0 12-5.373 12-12S18.627 0 12 0 0 5.373 0 12s5.373 12 12 12" fill="#DD4B39"/><path d="M15.635 11.42h-4.661v1.622h2.844c-.424 1.41-1.686 2.433-3.177 2.433-1.838 0-3.33-1.556-3.33-3.475 0-1.92 1.492-3.475 3.33-3.475.927 0 1.764.395 2.367 1.032l1.128-1.28a4.876 4.876 0 0 0-3.495-1.49c-2.758 0-4.993 2.334-4.993 5.213s2.235 5.212 4.993 5.212c2.416 0 4.53-1.79 4.994-4.17v-1.621zm1.554-.842v.995h-.954v.854h.954v.995h.817v-.995h.953v-.854h-.953v-.995z" fill="#FFF"/></g></svg>