<?xml version="1.0" encoding="UTF-8"?>
<svg width="24px" height="24px" viewBox="0 0 24 24" version="1.1" xmlns="http://www.w3.org/2000/svg" xmlns:xlink="http://www.w3.org/1999/xlink">
    <!-- Generator: Sketch 52.3 (67297) - http://www.bohemiancoding.com/sketch -->
    <title>Fill 1</title>
    <desc>Created with Sketch.</desc>
    <g id="---Tips" stroke="none" stroke-width="1" fill="none" fill-rule="evenodd">
        <g id="Compositions/Tips/1-Line" transform="translate(-16.000000, -16.000000)" fill="#FFCE3A">
            <g id="Group-3" transform="translate(16.000000, 16.000000)">
                <path d="M15,15.6904 L15,17.2504 L12.75,17.2504 L12.75,12.6114 C13.621,12.3004 14.25,11.4764 14.25,10.5004 C14.25,9.2594 13.241,8.2504 12,8.2504 C10.759,8.2504 9.75,9.2594 9.75,10.5004 C9.75,11.4764 10.379,12.3004 11.25,12.6114 L11.25,17.2504 L9,17.2504 L9,15.6904 C7.208,14.6534 6,12.7194 6,10.5004 C6,7.1864 8.687,4.5004 12,4.5004 C15.313,4.5004 18,7.1864 18,10.5004 C18,12.7194 16.792,14.6534 15,15.6904 M11.25,10.5004 C11.25,10.0864 11.586,9.7504 12,9.7504 C12.414,9.7504 12.75,10.0864 12.75,10.5004 C12.75,10.9134 12.414,11.2504 12,11.2504 C11.586,11.2504 11.25,10.9134 11.25,10.5004 M12,20.5004 C10.791,20.5004 9.755,19.7804 9.28,18.7504 L14.72,18.7504 C14.245,19.7804 13.209,20.5004 12,20.5004 M12,0.0004 C5.373,0.0004 0,5.3724 0,12.0004 C0,18.6284 5.373,24.0004 12,24.0004 C18.627,24.0004 24,18.6284 24,12.0004 C24,5.3724 18.627,0.0004 12,0.0004" id="Fill-1"></path>
            </g>
        </g>
    </g>
</svg>